<svg width="40" height="40" viewBox="0 0 40 40" fill="none" xmlns="http://www.w3.org/2000/svg">
<g clip-path="url(#clip0_328_13164)">
<path opacity="0.7" d="M39.5 20C39.5 30.7696 30.7696 39.5 20 39.5C9.23045 39.5 0.5 30.7696 0.5 20C0.5 9.23045 9.23045 0.5 20 0.5C30.7696 0.5 39.5 9.23045 39.5 20Z" stroke="#4B4B4B"/>
<path fill-rule="evenodd" clip-rule="evenodd" d="M20 11.9946C20.855 11.9946 21.732 12.0166 22.582 12.0526L23.586 12.1006L24.547 12.1576L25.447 12.2186L26.269 12.2826C27.161 12.3509 28.0004 12.7316 28.6395 13.3577C29.2786 13.9838 29.6764 14.8152 29.763 15.7056L29.803 16.1306L29.878 17.0406C29.948 17.9836 30 19.0116 30 19.9946C30 20.9776 29.948 22.0056 29.878 22.9486L29.803 23.8586C29.79 24.0046 29.777 24.1456 29.763 24.2836C29.6764 25.1742 29.2784 26.0058 28.6391 26.6319C27.9999 27.258 27.1602 27.6386 26.268 27.7066L25.448 27.7696L24.548 27.8316L23.586 27.8886L22.582 27.9366C21.732 27.9726 20.855 27.9946 20 27.9946C19.145 27.9946 18.268 27.9726 17.418 27.9366L16.414 27.8886L15.453 27.8316L14.553 27.7696L13.731 27.7066C12.839 27.6384 11.9996 27.2577 11.3605 26.6316C10.7214 26.0055 10.3236 25.1741 10.237 24.2836L10.197 23.8586L10.122 22.9486C10.0455 21.9658 10.0048 20.9804 10 19.9946C10 19.0116 10.052 17.9836 10.122 17.0406L10.197 16.1306C10.21 15.9846 10.223 15.8436 10.237 15.7056C10.3235 14.8153 10.7212 13.984 11.3601 13.358C11.999 12.7319 12.8381 12.3511 13.73 12.2826L14.551 12.2186L15.451 12.1576L16.413 12.1006L17.417 12.0526C18.268 12.0166 19.145 11.9946 20 11.9946ZM18 17.5696V22.4196C18 22.8816 18.5 23.1696 18.9 22.9396L23.1 20.5146C23.1914 20.462 23.2673 20.3863 23.3201 20.295C23.3729 20.2037 23.4007 20.1001 23.4007 19.9946C23.4007 19.8892 23.3729 19.7856 23.3201 19.6943C23.2673 19.603 23.1914 19.5272 23.1 19.4746L18.9 17.0506C18.8088 16.998 18.7053 16.9702 18.5999 16.9702C18.4945 16.9703 18.3911 16.998 18.2998 17.0507C18.2086 17.1034 18.1329 17.1792 18.0802 17.2705C18.0276 17.3618 17.9999 17.4653 18 17.5706V17.5696Z" fill="#4B4B4B"/>
</g>
<defs>
<clipPath id="clip0_328_13164">
<rect width="40" height="40" fill="white"/>
</clipPath>
</defs>
</svg>
