<svg width="24" height="25" viewBox="0 0 24 25" fill="none" xmlns="http://www.w3.org/2000/svg">
<path d="M4.68943 23.8064C5.30953 24.2728 6.02946 24.4979 6.74413 24.4979C7.81968 24.4979 8.88114 23.988 9.56427 23.0298C9.56623 23.0278 9.56808 23.0256 9.56983 23.0234C9.57148 23.0212 9.57313 23.0189 9.57467 23.0167L9.57704 23.0132C9.57869 23.0108 9.58024 23.0085 9.58178 23.0062L11.9991 19.564L14.4164 23.0062C14.4188 23.01 14.4212 23.0128 14.4236 23.016C14.4247 23.0175 14.4258 23.019 14.4269 23.0207C15.5655 24.6267 17.7533 24.9805 19.3106 23.8083C20.8695 22.6361 21.2181 20.3696 20.0935 18.7511L20.091 18.747C20.089 18.7436 20.0873 18.7411 20.0847 18.7384L17.6727 15.2942L21.5807 13.9769C23.4164 13.3581 24.4253 11.3059 23.828 9.4041C23.2308 7.50245 21.2514 6.45726 19.4139 7.07423L15.506 8.38618L15.5042 4.12735C15.5024 2.12767 13.9311 0.5 12.0008 0.5C10.0705 0.5 8.49931 2.12767 8.49756 4.12916L8.49405 8.38437L4.5861 7.0724C4.58455 7.0724 4.58267 7.07205 4.58077 7.0715C4.57831 7.07081 4.57578 7.06979 4.57382 7.06878C2.73983 6.45908 0.767462 7.50426 0.171901 9.4024C-0.423671 11.3004 0.578295 13.3454 2.40526 13.9696C2.40695 13.9702 2.40847 13.9708 2.40992 13.9715L2.41636 13.974L2.41929 13.9751L6.32548 15.2924L3.91343 18.7366C3.91256 18.7384 3.91126 18.7402 3.90995 18.742C3.90862 18.7438 3.90733 18.7456 3.90645 18.7475C2.78012 20.366 3.13046 22.6343 4.68943 23.8064Z" fill="#0068FF"/>
</svg>
