<svg width="12" height="13" viewBox="0 0 12 13" fill="none" xmlns="http://www.w3.org/2000/svg">
<path fill-rule="evenodd" clip-rule="evenodd" d="M5.99992 9.53605L2.73742 11.2176C2.71272 11.2303 2.68497 11.2359 2.65727 11.2338C2.62957 11.2317 2.60301 11.2219 2.58053 11.2056C2.55806 11.1892 2.54056 11.167 2.52999 11.1413C2.51942 11.1156 2.51619 11.0875 2.52067 11.0601L3.11316 7.43755L0.504665 4.85605C0.484537 4.83673 0.470256 4.81214 0.463459 4.78508C0.456663 4.75803 0.457624 4.72961 0.466234 4.70307C0.474844 4.67654 0.490755 4.65296 0.512143 4.63505C0.53353 4.61714 0.559531 4.60562 0.587165 4.6018L4.21491 4.04455L5.86491 0.76705C5.87736 0.742089 5.89651 0.721091 5.92022 0.706413C5.94394 0.691735 5.97128 0.68396 5.99917 0.68396C6.02705 0.68396 6.05439 0.691735 6.07811 0.706413C6.10182 0.721091 6.12098 0.742089 6.13342 0.76705L7.78341 4.04455L11.4112 4.6018C11.4386 4.60588 11.4644 4.61755 11.4856 4.6355C11.5068 4.65344 11.5226 4.67694 11.5312 4.70336C11.5398 4.72979 11.5408 4.75807 11.5342 4.78505C11.5275 4.81202 11.5135 4.83661 11.4937 4.85605L8.88741 7.4383L9.47841 11.0608C9.48273 11.0882 9.47938 11.1162 9.46874 11.1418C9.4581 11.1673 9.44059 11.1895 9.41814 11.2057C9.3957 11.2219 9.3692 11.2316 9.34158 11.2337C9.31396 11.2358 9.2863 11.2302 9.26166 11.2176L5.99992 9.53605Z" fill="#F6BD2B"/>
</svg>
